<?xml version="1.0" encoding="UTF-8" standalone="no"?>
<!-- Created with Inkscape (http://www.inkscape.org/) -->

<svg
   xmlns:svg="http://www.w3.org/2000/svg"
   xmlns="http://www.w3.org/2000/svg"
   version="1.1"
   width="31.889763"
   height="31.889763"
   id="svg2">
  <defs
     id="defs4" />
  <g
     transform="translate(0,-1020.4724)"
     id="layer1">
    <g
       transform="translate(-0.35236237,0.55511043)"
       id="g3724">
      <path
         d="m 13,13.933071 a 1.5,1.5 0 1 1 -3,0 1.5,1.5 0 1 1 3,0 z"
         transform="matrix(0.53149607,0,0,0.53149607,2.6850393,1020.9568)"
         id="path2818"
         style="fill:none;stroke:#000000;stroke-width:0.99999994;stroke-miterlimit:4;stroke-opacity:1;stroke-dasharray:none" />
      <path
         d="m 13,13.933071 a 1.5,1.5 0 1 1 -3,0 1.5,1.5 0 1 1 3,0 z"
         transform="matrix(0.53149607,0,0,0.53149607,17.685039,1020.9568)"
         id="path2818-1"
         style="fill:none;stroke:#000000;stroke-width:0.99999994;stroke-miterlimit:4;stroke-opacity:1;stroke-dasharray:none" />
      <path
         d="m 13,13.933071 a 1.5,1.5 0 1 1 -3,0 1.5,1.5 0 1 1 3,0 z"
         transform="matrix(0.53149607,0,0,0.53149607,2.685039,1035.9568)"
         id="path2818-3"
         style="fill:none;stroke:#000000;stroke-width:0.99999994;stroke-miterlimit:4;stroke-opacity:1;stroke-dasharray:none" />
      <path
         d="m 13,13.933071 a 1.5,1.5 0 1 1 -3,0 1.5,1.5 0 1 1 3,0 z"
         transform="matrix(0.53149607,0,0,0.53149607,17.685039,1035.9568)"
         id="path2818-1-1"
         style="fill:none;stroke:#000000;stroke-width:0.99999994;stroke-miterlimit:4;stroke-opacity:1;stroke-dasharray:none" />
    </g>
  </g>
</svg>
